<?xml version="1.0" encoding="utf-8"?>
<!-- Generator: Adobe Illustrator 24.2.3, SVG Export Plug-In . SVG Version: 6.00 Build 0)  -->
<svg version="1.1" id="Layer_1" xmlns="http://www.w3.org/2000/svg" xmlns:xlink="http://www.w3.org/1999/xlink" x="0px" y="0px"
	 viewBox="0 0 623.62 172.27" style="enable-background:new 0 0 623.62 172.27;" xml:space="preserve">
<style type="text/css">
	.st0{fill:#010101;}
</style>
<g id="Layer_2_1_">
</g>
<g>
	<polygon class="st0" points="195.28,75.76 204.43,46.09 216.43,46.09 225.5,75.76 235.72,46.09 248.18,46.09 230.19,97.67 
		221.65,97.67 210.35,61.77 199.12,97.67 190.59,97.67 172.6,46.09 185.06,46.09 	"/>
	<rect x="254.41" y="46.09" class="st0" width="11.54" height="51.58"/>
	<path class="st0" d="M278.63,46.09h11.54v21.22l19.45-21.22h14.22l-20.52,22.83c1.76,2.46,5.07,7.07,9.84,13.77
		c4.77,6.69,8.3,11.69,10.69,15H310.4l-15.15-20.37l-5.15,5.77v14.6h-11.54V46.1L278.63,46.09L278.63,46.09L278.63,46.09z"/>
	<rect x="330.99" y="46.09" class="st0" width="11.54" height="51.58"/>
	<polygon class="st0" points="401.41,65.23 387.49,93.45 380.66,93.45 366.81,65.23 366.81,97.67 355.28,97.67 355.28,46.09 
		370.88,46.09 384.18,74.46 397.57,46.09 413.1,46.09 413.1,97.67 401.56,97.67 401.56,65.23 	"/>
	<polygon class="st0" points="462.84,46.09 462.84,56.32 437.16,56.32 437.16,66.99 460.23,66.99 460.23,76.84 437.16,76.84 
		437.16,87.53 463.69,87.53 463.69,97.67 425.71,97.67 425.71,46.09 	"/>
	<path class="st0" d="M504.89,83.52c2.84-2.69,4.22-6.54,4.22-11.61s-1.38-9-4.22-11.69c-2.84-2.76-7.15-4.07-12.99-4.07h-6.45
		v31.36h7.3C497.98,87.53,502.05,86.22,504.89,83.52z M513.27,52.86c4.92,4.54,7.38,10.76,7.38,18.76s-2.38,14.38-7.23,19.07
		c-4.77,4.69-12.15,7-21.98,7h-17.61V46.1h18.22C501.37,46.09,508.35,48.39,513.27,52.86z"/>
	<rect x="530.65" y="46.09" class="st0" width="11.54" height="51.58"/>
	<path class="st0" d="M576.01,61.46l-6.45,15h12.92L576.01,61.46z M591.63,97.67l-4.77-11.14h-21.6l-4.77,11.14h-12.22l22.3-51.58
		h11.14L604,97.67H591.63z"/>
	<path class="st0" d="M91.57,126.51c19.45-2.76,34.37-19.45,34.37-39.59c0-12.3-5.54-23.21-14.22-30.6L91.58,76.45v50.05h-0.01
		V126.51z"/>
	<path class="st0" d="M80.26,126.51V76.45L60.12,56.23c-8.68,7.3-14.22,18.29-14.22,30.6C45.9,107.05,60.82,123.75,80.26,126.51z"/>
	<path class="st0" d="M120.7,52.08c9.3,9.3,14.38,21.68,14.38,34.75s-5.15,25.53-14.38,34.75c-9.3,9.3-21.68,14.38-34.75,14.38
		s-25.53-5.15-34.75-14.38c-9.23-9.23-14.45-21.6-14.45-34.75S41.9,61.3,51.13,52.08c0.77-0.77,1.61-1.53,2.46-2.31L42.36,38.54
		c-0.85,0.77-1.61,1.53-2.46,2.31c-6,6-10.69,12.92-13.92,20.69c-3.38,8-5.15,16.53-5.15,25.29s1.7,17.29,5.15,25.29
		c3.31,7.77,8,14.68,13.92,20.69c6,6,12.92,10.69,20.69,13.92c8,3.38,16.53,5.15,25.29,5.15s17.29-1.7,25.29-5.15
		c7.77-3.31,14.68-8,20.69-13.92c6-6,10.69-12.92,13.92-20.69c3.38-8,5.15-16.53,5.15-25.29s-1.7-17.29-5.15-25.29
		c-3.31-7.77-8-14.68-13.92-20.69c-0.77-0.77-1.61-1.53-2.46-2.31l-11.14,11.22C119.09,50.46,119.85,51.23,120.7,52.08z"/>
	<circle class="st0" cx="85.88" cy="41.7" r="20.3"/>
	<g>
		<path class="st0" d="M189.13,129.04c0-6.69,5.11-11.51,11.99-11.51c3.65,0,6.78,1.31,8.86,3.75l-2.68,2.53
			c-1.63-1.76-3.65-2.62-5.97-2.62c-4.63,0-8,3.27-8,7.86c0,4.61,3.36,7.86,8,7.86c2.34,0,4.35-0.86,5.97-2.65l2.68,2.56
			c-2.08,2.43-5.21,3.75-8.89,3.75C194.24,140.56,189.13,135.72,189.13,129.04z"/>
		<path class="st0" d="M218.91,129.04c0-6.62,5.11-11.51,12.06-11.51s12.06,4.87,12.06,11.51c0,6.66-5.11,11.51-12.06,11.51
			C224.02,140.56,218.91,135.67,218.91,129.04z M238.83,129.04c0-4.57-3.36-7.86-7.86-7.86c-4.51,0-7.86,3.29-7.86,7.86
			c0,4.58,3.36,7.86,7.86,7.86C235.46,136.91,238.83,133.62,238.83,129.04z"/>
		<path class="st0" d="M254.44,117.85h4.16v18.87h11.7v3.51h-15.86L254.44,117.85L254.44,117.85z"/>
		<path class="st0" d="M278.58,129.04c0-6.62,5.11-11.51,12.06-11.51s12.06,4.87,12.06,11.51c0,6.66-5.11,11.51-12.06,11.51
			C283.7,140.56,278.58,135.67,278.58,129.04z M298.5,129.04c0-4.57-3.36-7.86-7.86-7.86c-4.51,0-7.86,3.29-7.86,7.86
			c0,4.58,3.36,7.86,7.86,7.86C295.15,136.91,298.5,133.62,298.5,129.04z"/>
		<path class="st0" d="M334.68,140.23l-0.03-14.83l-7.36,12.28h-1.86l-7.36-12.09v14.64h-3.96v-22.38h3.42l8.89,14.83l8.74-14.83
			h3.42l0.03,22.38H334.68z"/>
		<path class="st0" d="M371.57,134.16c0,3.84-3.01,6.07-8.76,6.07h-11.13v-22.38h10.49c5.37,0,8.26,2.27,8.26,5.82
			c0,2.3-1.15,3.99-2.88,4.92C369.94,129.36,371.57,131.25,371.57,134.16z M355.83,121.11v6.17h5.88c2.88,0,4.51-1.03,4.51-3.08
			c0-2.08-1.63-3.1-4.51-3.1h-5.88V121.11z M367.37,133.74c0-2.24-1.7-3.23-4.83-3.23h-6.71v6.47h6.71
			C365.67,136.98,367.37,135.98,367.37,133.74z"/>
		<path class="st0" d="M383.02,117.85h4.16v22.38h-4.16V117.85z"/>
		<path class="st0" d="M414.74,135.05h-11.2l-2.2,5.18h-4.28l10.08-22.38h4.09l10.1,22.38h-4.35L414.74,135.05z M413.36,131.8
			l-4.22-9.79l-4.18,9.79H413.36z"/>
	</g>
</g>
</svg>
